# xmcd CD database file
# Copyright (C) 1993-1998 Ti Kan
#
# Track frame offsets:
#	150
#	13637
#	28515
#	41570
#	55600
#	68442
#	81700
#	95012
#	108227
#	120270
#	134117
#	146962
#	160105
#	173370
#	186737
#	199247
#	211810
#	223900
#	236462
#	249415
#	262862
#	276700
#	291227
#
# Disc length: 4068 seconds
#
# Revision: 1
# Processed by: cddbd v1.4b41PL1 Copyright (c) Steve Scherf et al.
# Submitted via: CDValet v3.31 - Copyright (c) 1997 Greg Leichner
#
DISCID=5c0fe217
DTITLE=Memphis Slim (Peter Chatman) - Bluebird Recordings, The 
DTITLE=Various Artist - 1940-1941
DYEAR=1900
DGENRE=
TTITLE0=Beer Drinkin' Woman
TTITLE1=Beer Drinkin' Woman (Take 2)
TTITLE2=You Didn't Mean Me No Good
TTITLE3=Grinder Man Blues
TTITLE4=Empty Room Blues
TTITLE5=Shelby County Blues
TTITLE6=I See My Great Mistake
TTITLE7=I See My Great Mistake (Take 2)
TTITLE8=Old Taylor
TTITLE9=I Believe I'll Settle Down
TTITLE10=Jasper's Gal
TTITLE11=You Got To Help Me Some
TTITLE12=Two Of A Kind
TTITLE13=Whiskey Store Blues
TTITLE14=Maybe I'll Loan You A Dime
TTITLE15=Me, Myself And I
TTITLE16=Whiskey And Gin Blues
TTITLE17=You Gonna Worry Too
TTITLE18=This Life I'm Livin'
TTITLE19=Caught The Old Coon At Last
TTITLE20=Don't Think That You're Smart
TTITLE21=Lend Me Your Love
TTITLE22=Lend Me Your Love (Take 2)
EXTD=
EXTT0=
EXTT1=
EXTT2=
EXTT3=
EXTT4=
EXTT5=
EXTT6=
EXTT7=
EXTT8=
EXTT9=
EXTT10=
EXTT11=
EXTT12=
EXTT13=
EXTT14=
EXTT15=
EXTT16=
EXTT17=
EXTT18=
EXTT19=
EXTT20=
EXTT21=
EXTT22=
PLAYORDER=
